<svg width="48px" height="58px" viewBox="0 0 48 58" version="1.1" xmlns="http://www.w3.org/2000/svg">
    <g>
        <path d="M30.999,6 C30.999,6 31.155,0 26.999,0 L21.939,0 L22.061,0 L17,0 C12.844,0 13,6 13,6" id="Stroke-440" stroke="#DD691D" stroke-width="2" ></path>
        <path d="M0,6 L46,6" id="Stroke-441" stroke="#DD691D" stroke-width="2" stroke-linecap="round" stroke-linejoin="round" ></path>
        <path d="M3.166,10 L4.956,53 C4.956,53 5.04,57 8.864,57 L37.136,57 C40.96,57 41.044,53 41.044,53 L42.833,10 L3.166,10" id="Fill-491" fill="#DD691D"></path>
        <path d="M11,52 L35,52 M11,47 L35,47 M11,42 L35,42" id="Stroke-492" stroke="#ECBA16" stroke-width="2" stroke-linecap="round" stroke-linejoin="round"></path>
    </g>
</svg>